<?xml version="1.0" encoding="UTF-8" standalone="no"?>
<!DOCTYPE svg PUBLIC "-//W3C//DTD SVG 1.1//EN" "http://www.w3.org/Graphics/SVG/1.1/DTD/svg11.dtd">
<svg width="100%" height="100%" viewBox="0 0 48 48" version="1.1" xmlns="http://www.w3.org/2000/svg" xmlns:xlink="http://www.w3.org/1999/xlink" xml:space="preserve" xmlns:serif="http://www.serif.com/" style="fill-rule:evenodd;clip-rule:evenodd;stroke-linejoin:round;stroke-miterlimit:2;">
    <g transform="matrix(1,0,0,1,-50,0)">
        <g transform="matrix(7.5,0,0,6.81818,-315,0)">
            <g id="tetris-i2" transform="matrix(1.04667,0,0,0.946667,4.70667,0)">
                <g transform="matrix(0.127389,0,0,0.15493,42.5096,-0.232394)">
                    <g transform="matrix(1.12207,0,0,1.12207,10.7399,-3.59632)">
                        <rect x="8.698" y="6.77" width="8.912" height="8.912"/>
                    </g>
                    <g transform="matrix(1.12207,0,0,1.12207,10.7399,7.40368)">
                        <rect x="8.698" y="6.77" width="8.912" height="8.912"/>
                    </g>
                    <g transform="matrix(1.12207,0,0,1.12207,10.7399,18.4037)">
                        <rect x="8.698" y="6.77" width="8.912" height="8.912"/>
                    </g>
                    <g transform="matrix(1.12207,0,0,1.12207,10.7399,29.4037)">
                        <rect x="8.698" y="6.77" width="8.912" height="8.912"/>
                    </g>
                </g>
            </g>
        </g>
    </g>
</svg>
